<mxfile modified="2020-11-26T11:13:07.109Z" host="app.diagrams.net" agent="5.0 (Windows NT 10.0; Win64; x64) AppleWebKit/537.36 (KHTML, like Gecko) Chrome/86.0.4240.198 Safari/537.36" etag="nfk4sCsgvCaxE6wSSipG" version="13.10.3" type="github">
  <diagram id="Ht1M8jgEwFfnCIfOTk4-" name="Page-1">
    <mxGraphModel dx="1300" dy="694" grid="1" gridSize="10" guides="1" tooltips="1" connect="1" arrows="1" fold="1" page="1" pageScale="1" pageWidth="1169" pageHeight="827" math="0" shadow="0">
      <root>
        <mxCell id="0" />
        <mxCell id="1" parent="0" />
        <mxCell id="vqClPS2iA8SCq8LR30hm-1" value="&lt;font style=&quot;font-size: 14px&quot;&gt;Concept of &lt;/font&gt;Infrastructure Management as Code" style="text;strokeColor=none;fillColor=none;html=1;fontSize=24;fontStyle=1;verticalAlign=middle;align=center;" parent="1" vertex="1">
          <mxGeometry y="200" width="640" height="40" as="geometry" />
        </mxCell>
        <mxCell id="vqClPS2iA8SCq8LR30hm-2" value="" style="image;html=1;labelBackgroundColor=#ffffff;image=img/lib/clip_art/computers/Server_Rack_128x128.png" parent="1" vertex="1">
          <mxGeometry x="960" y="440" width="80" height="80" as="geometry" />
        </mxCell>
        <mxCell id="vqClPS2iA8SCq8LR30hm-3" value="" style="image;html=1;labelBackgroundColor=#ffffff;image=img/lib/clip_art/computers/Server_Rack_128x128.png" parent="1" vertex="1">
          <mxGeometry x="960" y="520" width="80" height="80" as="geometry" />
        </mxCell>
        <mxCell id="vqClPS2iA8SCq8LR30hm-4" value="" style="image;html=1;labelBackgroundColor=#ffffff;image=img/lib/clip_art/computers/Server_Rack_128x128.png" parent="1" vertex="1">
          <mxGeometry x="1040" y="440" width="80" height="80" as="geometry" />
        </mxCell>
        <mxCell id="vqClPS2iA8SCq8LR30hm-5" value="" style="image;html=1;labelBackgroundColor=#ffffff;image=img/lib/clip_art/computers/Server_Rack_128x128.png" parent="1" vertex="1">
          <mxGeometry x="1040" y="520" width="80" height="80" as="geometry" />
        </mxCell>
        <mxCell id="vqClPS2iA8SCq8LR30hm-6" value="IaC module" style="label;whiteSpace=wrap;html=1;image=img/clipart/Gear_128x128.png" parent="1" vertex="1">
          <mxGeometry x="690" y="490" width="140" height="60" as="geometry" />
        </mxCell>
        <mxCell id="vqClPS2iA8SCq8LR30hm-7" value="&lt;table border=&quot;1&quot; width=&quot;100%&quot; cellpadding=&quot;4&quot; style=&quot;width: 100% ; height: 100% ; border-collapse: collapse&quot;&gt;&lt;tbody&gt;&lt;tr style=&quot;background-color: #a7c942 ; color: #ffffff ; border: 1px solid #98bf21&quot;&gt;&lt;th align=&quot;left&quot;&gt;CI Identifier&lt;/th&gt;&lt;th align=&quot;left&quot;&gt;Attribute 1&lt;/th&gt;&lt;th align=&quot;left&quot;&gt;Attribute 2&lt;/th&gt;&lt;/tr&gt;&lt;tr style=&quot;border: 1px solid #98bf21&quot;&gt;&lt;td&gt;Server1&lt;/td&gt;&lt;td&gt;Value 11&lt;/td&gt;&lt;td&gt;Value 12&lt;/td&gt;&lt;/tr&gt;&lt;tr style=&quot;background-color: #eaf2d3 ; border: 1px solid #98bf21&quot;&gt;&lt;td&gt;Server2&lt;/td&gt;&lt;td&gt;Value 21&lt;/td&gt;&lt;td&gt;Value 22&lt;/td&gt;&lt;/tr&gt;&lt;tr style=&quot;border: 1px solid #98bf21&quot;&gt;&lt;td&gt;Server3&lt;/td&gt;&lt;td&gt;Value 31&lt;/td&gt;&lt;td&gt;Value 32&lt;/td&gt;&lt;/tr&gt;&lt;tr style=&quot;background-color: #eaf2d3 ; border: 1px solid #98bf21&quot;&gt;&lt;td&gt;Server4&lt;/td&gt;&lt;td&gt;Value 41&lt;/td&gt;&lt;td&gt;Value 42&lt;/td&gt;&lt;/tr&gt;&lt;/tbody&gt;&lt;/table&gt;" style="text;html=1;strokeColor=#c0c0c0;fillColor=#ffffff;overflow=fill;rounded=0;" parent="1" vertex="1">
          <mxGeometry x="80" y="440" width="280" height="160" as="geometry" />
        </mxCell>
        <mxCell id="vqClPS2iA8SCq8LR30hm-8" value="" style="shape=flexArrow;endArrow=classic;html=1;" parent="1" edge="1">
          <mxGeometry width="50" height="50" relative="1" as="geometry">
            <mxPoint x="600" y="580" as="sourcePoint" />
            <mxPoint x="920" y="580" as="targetPoint" />
          </mxGeometry>
        </mxCell>
        <mxCell id="vqClPS2iA8SCq8LR30hm-9" value="" style="shape=flexArrow;endArrow=classic;startArrow=classic;html=1;" parent="1" edge="1">
          <mxGeometry width="50" height="50" relative="1" as="geometry">
            <mxPoint x="600" y="460" as="sourcePoint" />
            <mxPoint x="920" y="460" as="targetPoint" />
          </mxGeometry>
        </mxCell>
        <mxCell id="vqClPS2iA8SCq8LR30hm-10" value="Compare" style="text;html=1;strokeColor=none;fillColor=none;align=center;verticalAlign=middle;whiteSpace=wrap;rounded=0;" parent="1" vertex="1">
          <mxGeometry x="640" y="430" width="240" height="20" as="geometry" />
        </mxCell>
        <mxCell id="vqClPS2iA8SCq8LR30hm-11" value="Enforce" style="text;html=1;strokeColor=none;fillColor=none;align=center;verticalAlign=middle;whiteSpace=wrap;rounded=0;" parent="1" vertex="1">
          <mxGeometry x="640" y="590" width="240" height="20" as="geometry" />
        </mxCell>
        <mxCell id="vqClPS2iA8SCq8LR30hm-16" value="&lt;h1&gt;Manage existing Legacy Infrastructure by Infrastructure as Code&lt;/h1&gt;There are so many cases of having Spread sheet file or Notes database to manage the legacy infrastructure.&amp;nbsp;&lt;span&gt;IMaC try to resolve a micro scoped management of systems with replacing these micro configuration management database and using IaC automation.&amp;nbsp;&lt;/span&gt;&lt;span&gt;As baseline, the target systems are not possible to be built by IaC. However, by using IaC engines like ansible or Chef, IaC engine can &lt;/span&gt;&lt;b&gt;&lt;font color=&quot;#0000ff&quot;&gt;compare &lt;/font&gt;&lt;/b&gt;&lt;span&gt;the targets are in the desired state which is defined as CMDB code. the CMDB code which is represented by JSON file will replace the spread sheet or Notes DB. This sample repository has a code to show the view of JSON data and to edit it.&lt;br&gt;&lt;/span&gt;" style="text;html=1;strokeColor=none;fillColor=none;spacing=5;spacingTop=-20;whiteSpace=wrap;overflow=hidden;rounded=0;align=left;" parent="1" vertex="1">
          <mxGeometry x="80" y="280" width="1000" height="120" as="geometry" />
        </mxCell>
        <mxCell id="vqClPS2iA8SCq8LR30hm-17" value="" style="shape=image;html=1;verticalAlign=top;verticalLabelPosition=bottom;labelBackgroundColor=#ffffff;imageAspect=0;aspect=fixed;image=https://cdn3.iconfinder.com/data/icons/file-set-volume-1/512/Artboard_9-128.png;align=left;" parent="1" vertex="1">
          <mxGeometry x="480" y="480" width="78" height="78" as="geometry" />
        </mxCell>
        <mxCell id="vqClPS2iA8SCq8LR30hm-18" value="" style="shape=flexArrow;endArrow=classic;html=1;" parent="1" edge="1">
          <mxGeometry width="50" height="50" relative="1" as="geometry">
            <mxPoint x="460" y="520" as="sourcePoint" />
            <mxPoint x="400" y="520" as="targetPoint" />
          </mxGeometry>
        </mxCell>
        <mxCell id="vqClPS2iA8SCq8LR30hm-19" value="Show" style="text;html=1;strokeColor=none;fillColor=none;align=center;verticalAlign=middle;whiteSpace=wrap;rounded=0;" parent="1" vertex="1">
          <mxGeometry x="370" y="550" width="120" height="20" as="geometry" />
        </mxCell>
        <mxCell id="vqClPS2iA8SCq8LR30hm-20" value="" style="shape=flexArrow;endArrow=classic;html=1;" parent="1" edge="1">
          <mxGeometry width="50" height="50" relative="1" as="geometry">
            <mxPoint x="518.5" y="640" as="sourcePoint" />
            <mxPoint x="518.5" y="590" as="targetPoint" />
          </mxGeometry>
        </mxCell>
        <mxCell id="vqClPS2iA8SCq8LR30hm-21" value="Edit" style="text;html=1;strokeColor=none;fillColor=none;align=center;verticalAlign=middle;whiteSpace=wrap;rounded=0;" parent="1" vertex="1">
          <mxGeometry x="459" y="650" width="120" height="20" as="geometry" />
        </mxCell>
        <mxCell id="vqClPS2iA8SCq8LR30hm-62" value="" style="pointerEvents=1;shadow=0;dashed=0;html=1;strokeColor=none;fillColor=#505050;labelPosition=center;verticalLabelPosition=bottom;verticalAlign=top;outlineConnect=0;align=center;shape=mxgraph.office.concepts.form;" parent="1" vertex="1">
          <mxGeometry x="491" y="680" width="56" height="49" as="geometry" />
        </mxCell>
        <mxCell id="PuZBKxbfyslyXMYmaq0k-1" value="table.html" style="text;html=1;strokeColor=none;fillColor=none;align=center;verticalAlign=middle;whiteSpace=wrap;rounded=0;" vertex="1" parent="1">
          <mxGeometry x="160" y="620" width="120" height="20" as="geometry" />
        </mxCell>
        <mxCell id="PuZBKxbfyslyXMYmaq0k-2" value="edit.html" style="text;html=1;strokeColor=none;fillColor=none;align=center;verticalAlign=middle;whiteSpace=wrap;rounded=0;" vertex="1" parent="1">
          <mxGeometry x="459" y="740" width="120" height="20" as="geometry" />
        </mxCell>
        <mxCell id="PuZBKxbfyslyXMYmaq0k-3" value="cmdb.json" style="text;html=1;strokeColor=none;fillColor=none;align=center;verticalAlign=middle;whiteSpace=wrap;rounded=0;" vertex="1" parent="1">
          <mxGeometry x="459" y="560" width="120" height="20" as="geometry" />
        </mxCell>
        <mxCell id="PuZBKxbfyslyXMYmaq0k-4" value="Target Systems" style="text;html=1;strokeColor=none;fillColor=none;align=center;verticalAlign=middle;whiteSpace=wrap;rounded=0;" vertex="1" parent="1">
          <mxGeometry x="980" y="610" width="130" height="20" as="geometry" />
        </mxCell>
      </root>
    </mxGraphModel>
  </diagram>
</mxfile>
